<svg xmlns="http://www.w3.org/2000/svg" width="32" height="32" viewBox="0 0 32 32" fill="none">
  <!-- shopping basket - market - blue -->
  <path d="M27 12H5l2.5 13c.2 1.1 1.2 2 2.3 2h12.4c1.1 0 2.1-.9 2.3-2L27 12z" fill="#24B0DD" opacity="0.3"/>
  <path d="M27 12H5c-.55 0-1-.45-1-1s.45-1 1-1h22c.55 0 1 .45 1 1s-.45 1-1 1z" fill="#24B0DD"/>
  <path d="M11 10V7c0-2.76 2.24-5 5-5s5 2.24 5 5v3" stroke="#24B0DD" stroke-width="2" stroke-linecap="round" fill="none"/>
  <path d="M12 15v7M16 15v7M20 15v7" stroke="#24B0DD" stroke-width="1.5" stroke-linecap="round"/>
</svg>
